<?xml version="1.0" encoding="UTF-8"?>
<!DOCTYPE svg PUBLIC "-//W3C//DTD SVG 1.1//EN" "http://www.w3.org/Graphics/SVG/1.1/DTD/svg11.dtd">
<svg xmlns="http://www.w3.org/2000/svg" version="1.1" width="180px" height="180px" style="shape-rendering:geometricPrecision; text-rendering:geometricPrecision; image-rendering:optimizeQuality; fill-rule:evenodd; clip-rule:evenodd" xmlns:xlink="http://www.w3.org/1999/xlink">
<g><path style="opacity:1" fill="#cfcfcf" d="M -0.5,-0.5 C 59.5,-0.5 119.5,-0.5 179.5,-0.5C 179.5,59.5 179.5,119.5 179.5,179.5C 119.5,179.5 59.5,179.5 -0.5,179.5C -0.5,119.5 -0.5,59.5 -0.5,-0.5 Z"/></g>
<g><path style="opacity:1" fill="#3d3d3d" d="M 110.5,31.5 C 110.831,39.5277 110.498,47.5277 109.5,55.5C 108.893,55.3764 108.56,55.0431 108.5,54.5C 109.167,46.8333 109.833,39.1667 110.5,31.5 Z"/></g>
<g><path style="opacity:1" fill="#0b0b0b" d="M 110.5,31.5 C 112.5,31.5 114.5,31.5 116.5,31.5C 116.334,41.5056 116.5,51.5056 117,61.5C 124.031,67.561 127.864,75.2277 128.5,84.5C 132.029,86.4228 136.029,87.0894 140.5,86.5C 140.5,88.8333 140.5,91.1667 140.5,93.5C 136.5,93.5 132.5,93.5 128.5,93.5C 128.5,95.1667 128.5,96.8333 128.5,98.5C 127.596,99.209 127.263,100.209 127.5,101.5C 130.833,101.5 134.167,101.5 137.5,101.5C 137.5,103.5 137.5,105.5 137.5,107.5C 133.486,107.334 129.486,107.501 125.5,108C 111.579,129.862 92.5791,135.862 68.5,126C 66,124.167 63.5,122.333 61,120.5C 60.5004,127.158 60.3337,133.825 60.5,140.5C 58.1667,140.5 55.8333,140.5 53.5,140.5C 53.6665,130.494 53.4998,120.494 53,110.5C 52.6258,109.584 52.1258,108.75 51.5,108C 47.8484,107.501 44.1817,107.335 40.5,107.5C 40.2053,105.265 40.5386,103.265 41.5,101.5C 44.2469,101.813 46.9135,101.48 49.5,100.5C 49.3764,99.8933 49.0431,99.56 48.5,99.5C 48.7947,97.2646 48.4614,95.2646 47.5,93.5C 44.3752,92.5206 41.0419,92.1872 37.5,92.5C 37.5,90.5 37.5,88.5 37.5,86.5C 41.1667,86.5 44.8333,86.5 48.5,86.5C 48.5,85.1667 48.5,83.8333 48.5,82.5C 53.9556,62.207 67.1223,51.207 88,49.5C 95.3083,49.5358 102.142,51.2025 108.5,54.5C 108.56,55.0431 108.893,55.3764 109.5,55.5C 110.498,47.5277 110.831,39.5277 110.5,31.5 Z"/></g>
<g><path style="opacity:1" fill="#5d5d5d" d="M 132.5,63.5 C 132.5,55.8333 132.5,48.1667 132.5,40.5C 130.5,40.5 128.5,40.5 126.5,40.5C 126.5,48.1667 126.5,55.8333 126.5,63.5C 125.508,55.6841 125.174,47.6841 125.5,39.5C 128.167,39.5 130.833,39.5 133.5,39.5C 133.826,47.6841 133.492,55.6841 132.5,63.5 Z"/></g>
<g><path style="opacity:1" fill="#010101" d="M 132.5,63.5 C 130.5,63.5 128.5,63.5 126.5,63.5C 126.5,55.8333 126.5,48.1667 126.5,40.5C 128.5,40.5 130.5,40.5 132.5,40.5C 132.5,48.1667 132.5,55.8333 132.5,63.5 Z"/></g>
<g><path style="opacity:1" fill="#c9c9c9" d="M 85.5,55.5 C 93.808,55.8255 101.475,58.1589 108.5,62.5C 109.493,67.1196 109.827,71.7863 109.5,76.5C 111.833,76.5 114.167,76.5 116.5,76.5C 116.343,75.1266 116.51,73.7932 117,72.5C 120.51,76.5195 122.01,81.1862 121.5,86.5C 99.5,86.5 77.5,86.5 55.5,86.5C 58.0702,68.9304 68.0702,58.597 85.5,55.5 Z"/></g>
<g><path style="opacity:1" fill="#818181" d="M 48.5,82.5 C 48.5,83.8333 48.5,85.1667 48.5,86.5C 44.8333,86.5 41.1667,86.5 37.5,86.5C 37.1667,86.5 36.8333,86.5 36.5,86.5C 39.9619,85.5184 43.6286,85.185 47.5,85.5C 47.2627,84.209 47.596,83.209 48.5,82.5 Z"/></g>
<g><path style="opacity:1" fill="#787878" d="M 128.5,84.5 C 132.605,85.1086 136.605,85.7752 140.5,86.5C 136.029,87.0894 132.029,86.4228 128.5,84.5 Z"/></g>
<g><path style="opacity:1" fill="#3d3d3d" d="M 36.5,86.5 C 36.8333,86.5 37.1667,86.5 37.5,86.5C 37.5,88.5 37.5,90.5 37.5,92.5C 41.0419,92.1872 44.3752,92.5206 47.5,93.5C 43.8333,93.5 40.1667,93.5 36.5,93.5C 36.5,91.1667 36.5,88.8333 36.5,86.5 Z"/></g>
<g><path style="opacity:1" fill="#cecece" d="M 55.5,93.5 C 77.5,93.5 99.5,93.5 121.5,93.5C 121.5,95.8333 121.5,98.1667 121.5,100.5C 99.5,100.5 77.5,100.5 55.5,100.5C 55.5,98.1667 55.5,95.8333 55.5,93.5 Z"/></g>
<g><path style="opacity:1" fill="#5d5d5d" d="M 48.5,99.5 C 49.0431,99.56 49.3764,99.8933 49.5,100.5C 46.9135,101.48 44.2469,101.813 41.5,101.5C 43.8333,100.833 46.1667,100.167 48.5,99.5 Z"/></g>
<g><path style="opacity:1" fill="#5e5e5e" d="M 128.5,98.5 C 131.337,100.402 134.671,101.069 138.5,100.5C 138.802,103.059 138.468,105.393 137.5,107.5C 137.5,105.5 137.5,103.5 137.5,101.5C 134.167,101.5 130.833,101.5 127.5,101.5C 127.263,100.209 127.596,99.209 128.5,98.5 Z"/></g>
<g><path style="opacity:1" fill="#707070" d="M 116.5,109.5 C 97.8333,108.167 79.1667,108.167 60.5,109.5C 59.9569,109.44 59.6236,109.107 59.5,108.5C 78.8333,107.167 98.1667,107.167 117.5,108.5C 117.376,109.107 117.043,109.44 116.5,109.5 Z"/></g>
<g><path style="opacity:1" fill="#cdcdcd" d="M 116.5,109.5 C 105.124,123.715 90.7903,127.549 73.5,121C 68.3787,118.045 64.0454,114.211 60.5,109.5C 79.1667,108.167 97.8333,108.167 116.5,109.5 Z"/></g>
<g><path style="opacity:1" fill="#0f0f0f" d="M 37.5,120.5 C 40.1667,120.5 42.8333,120.5 45.5,120.5C 45.5,122.833 45.5,125.167 45.5,127.5C 42.8333,127.5 40.1667,127.5 37.5,127.5C 37.5,125.167 37.5,122.833 37.5,120.5 Z"/></g>
</svg>
